# xmcd
#
# Track frame offsets:
#       150
#       13795
#       29740
#       42367
#       60905
#       73940
#       98550
#       114037
#       133617
#       151495
#       194105
#       208457
#       226820
#
# Disc length: 3284 seconds
#
# Revision: 2
# Processed by: cddbd v1.4PL0 Copyright (c) Steve Scherf et al.
# Submitted via: MusiCat 1.1
#
DISCID=b70cd20d
DTITLE=John Mayall and the Blues Breakers - Return of the Bluesbreakers
DYEAR=1900
DGENRE=
TTITLE0=An Eye for an Eye
TTITLE1=The Same Old Blues
TTITLE2=Rock N Roll Kitchen
TTITLE3=Rock it in the Pocket
TTITLE4=Keep on Rollin'
TTITLE5=My Time After Awhile
TTITLE6=Ridin' on the Santa Fe
TTITLE7=Howlin' Moon
TTITLE8=You Never Can Be Trusted
TTITLE9=Lookiin' for Willie
TTITLE10=My Babe
TTITLE11=A Long Long Way
TTITLE12=Black Cat Moan
EXTD=0\n\n\n
EXTT0=
EXTT1=
EXTT2=
EXTT3=
EXTT4=
EXTT5=
EXTT6=
EXTT7=
EXTT8=
EXTT9=
EXTT10=
EXTT11=
EXTT12=
PLAYORDER=
